<svg xmlns="http://www.w3.org/2000/svg" xmlns:xlink="http://www.w3.org/1999/xlink" version="1.1" id="Layer_1" x="0px" y="0px" viewBox="0 0 612 792" enable-background="new 0 0 612 792" xml:space="preserve">
	<path fill="#151f30" d="M558,792c0,0,0-576-504-576C54,18,558,0,558,0V792z" />
	<path fill="#29364b" d="M612,86.606C612,86.606,720.572,0,670.072,0C520.486,0,10.105,22.099,10.105,220.099  C492.684,300.694,533.578,792,533.578,792l4.5-310.914c-20.334-53.079-107.994-152.992-107.994-152.992  c-80.995-68.997-128.994-121.495-269.987-164.992c65.664-37.873,181.581-58.76,304.485-70.496C494.606,89.437,612,86.606,612,86.606  z" />
</svg>
